<svg width="64" height="64" viewBox="0 0 64 64" fill="none" xmlns="http://www.w3.org/2000/svg">
<circle cx="32" cy="32" r="32" fill="#F7931A"/>
<path d="M43.2 26.133c.533-3.6-2.133-5.534-5.733-6.8l1.133-4.8-2.8-.667-1.133 4.533c-.733-.2-1.467-.333-2.2-.533l1.133-4.533-2.8-.667-1.133 4.8c-.6-.133-1.2-.267-1.8-.4v-.067l-3.867-.933-.733 3.067s2.133.533 2.067.533c1.2.267 1.4 1.067 1.333 1.667l-1.333 5.333c.067 0 .2.067.267.133-.067-.067-.133-.133-.267-.133l-1.867 7.467c-.133.333-.533.867-1.333.667.067.067-2.067-.533-2.067-.533l-1.333 3.267 3.667.933c.667.2 1.333.333 2 .533l-1.133 4.8 2.8.667 1.133-4.8c.733.2 1.467.4 2.2.533l-1.133 4.8 2.8.667 1.133-4.8c4.8.933 8.4.533 9.933-3.933 1.267-3.6-.067-5.667-2.667-7 1.867-.467 3.267-1.8 3.6-4.533zM38.133 35.2c-.867 3.533-6.8 1.6-8.733 1.133l1.533-6.267c1.933.533 8.067 1.533 7.2 5.133zm.867-9.8c-.8 3.2-5.733 1.533-7.333 1.133l1.4-5.667c1.6.4 6.733 1.133 5.933 4.533z" fill="white"/>
</svg> 